<svg t="1741144828729" class="icon" viewBox="0 0 1024 1024" version="1.1"
    xmlns="http://www.w3.org/2000/svg" p-id="9736" width="200" height="200">
    <path
        d="M855.35 856.1a30 30 0 0 0-30 30c0 5.42-3.59 10-7.84 10H167c-4.25 0-7.84-4.58-7.84-10V137.85c0-5.42 3.59-10 7.84-10h650.5c4.25 0 7.84 4.58 7.84 10v331.28a30 30 0 0 0 60 0V137.85c0-38.6-30.43-70-67.84-70H167c-37.4 0-67.84 31.4-67.84 70V886.1c0 38.6 30.44 70 67.84 70h650.5c37.41 0 67.84-31.4 67.84-70a30 30 0 0 0-29.99-30z"
        fill="#515151" p-id="9737"></path>
    <path
        d="M212.83 218.43h548.61v60H212.83zM212.83 379.65h548.61v60H212.83zM212.83 559.65H600.3v60H212.83zM960.94 778.45L870.18 700a120.69 120.69 0 1 0-22.46 32.31l87.63 75.72a12.39 12.39 0 0 0 17.48-1.27l9.38-10.85a12.4 12.4 0 0 0-1.27-17.46z m-199.51-49.54a80.3 80.3 0 1 1 80.3-80.3 80.39 80.39 0 0 1-80.3 80.3z"
        fill="#515151" p-id="9738"></path>
</svg>